<svg width="131" height="40" viewBox="0 0 131 40" fill="none" xmlns="http://www.w3.org/2000/svg" class="h-8 w-28 lgx:h-10 lgx:w-32"><path d="M29.4995 20.3201C26.8279 18.4859 22.8675 17.1064 22.7095 16.6372C22.5515 16.168 22.3383 9.82718 23.7684 7.82244C25.1985 5.8177 27.9913 5.00727 29.4995 3.94092C31.0077 5.00727 33.8015 5.8177 35.2316 7.82244C36.6617 9.82718 36.4485 16.168 36.2905 16.6372C36.1325 17.1064 32.1711 18.4859 29.4995 20.3201Z" fill="black"></path><path d="M20.2831 18.0659C20.7258 18.7905 28.3683 22.0511 28.5494 22.5039C28.7305 22.9567 28.3683 30.0361 28.5494 30.6702C28.7305 31.3042 29.4548 31.8627 29.5 31.8476C29.5453 31.8627 30.2695 31.3042 30.4506 30.6702C30.6317 30.0361 30.2695 22.9567 30.4506 22.5039C30.6317 22.0511 38.2743 18.7905 38.7169 18.0659C39.1595 17.3413 37.5543 10.0039 40.1063 9.59748C41.7695 9.33258 44.7656 14.5993 44.9919 18.7656C45.2183 22.9319 40.6249 29.2735 39.131 29.2735C37.6372 29.2735 36.6019 27.6338 36.6019 27.2261C36.6019 26.8185 37.0674 26.2627 37.5654 26.2627C37.9412 26.2627 38.1427 26.4987 38.2128 26.8681C38.2836 27.2412 37.6499 27.3618 37.8062 27.7079C37.9112 27.9403 38.1055 28.0385 38.355 28.0908C38.9444 28.2142 39.2823 27.4605 39.3719 26.8648C39.5154 25.9106 38.6544 25.0748 37.6996 24.9379C36.3728 24.7476 35.5218 25.8951 35.5218 26.982C35.5218 28.964 36.897 29.4927 37.2138 30.7155C37.5307 31.9382 29.5 36.0592 29.5 36.0592C29.5 36.0592 21.4693 31.9382 21.7862 30.7155C22.103 29.4927 23.4782 28.964 23.4782 26.982C23.4782 25.8951 22.6272 24.7476 21.3004 24.9379C20.3456 25.0748 19.4846 25.9106 19.6281 26.8648C19.7177 27.4605 20.0556 28.2142 20.645 28.0908C20.8945 28.0385 21.0888 27.9403 21.1938 27.7079C21.3501 27.3618 20.7164 27.2412 20.7872 26.8681C20.8573 26.4987 21.0588 26.2627 21.4346 26.2627C21.9326 26.2627 22.3981 26.8185 22.3981 27.2261C22.3981 27.6338 21.3628 29.2735 19.869 29.2735C18.3751 29.2735 13.7817 22.9319 14.0081 18.7656C14.2344 14.5993 17.2305 9.33258 18.8937 9.59748C21.4457 10.0039 19.8405 17.3413 20.2831 18.0659Z" fill="black"></path><path d="M29.4995 20.3201C26.8279 18.4859 22.8675 17.1064 22.7095 16.6372C22.5515 16.168 22.3383 9.82718 23.7684 7.82244C25.1985 5.8177 27.9913 5.00727 29.4995 3.94092C31.0077 5.00727 33.8015 5.8177 35.2316 7.82244C36.6617 9.82718 36.4485 16.168 36.2905 16.6372C36.1325 17.1064 32.1711 18.4859 29.4995 20.3201Z" stroke="black" stroke-width="0.2"></path><path d="M20.2831 18.0659C20.7258 18.7905 28.3683 22.0511 28.5494 22.5039C28.7305 22.9567 28.3683 30.0361 28.5494 30.6702C28.7305 31.3042 29.4548 31.8627 29.5 31.8476C29.5453 31.8627 30.2695 31.3042 30.4506 30.6702C30.6317 30.0361 30.2695 22.9567 30.4506 22.5039C30.6317 22.0511 38.2743 18.7905 38.7169 18.0659C39.1595 17.3413 37.5543 10.0039 40.1063 9.59748C41.7695 9.33258 44.7656 14.5993 44.9919 18.7656C45.2183 22.9319 40.6249 29.2735 39.131 29.2735C37.6372 29.2735 36.6019 27.6338 36.6019 27.2261C36.6019 26.8185 37.0674 26.2627 37.5654 26.2627C37.9412 26.2627 38.1427 26.4987 38.2128 26.8681C38.2836 27.2412 37.6499 27.3618 37.8062 27.7079C37.9112 27.9403 38.1055 28.0385 38.355 28.0908C38.9444 28.2142 39.2823 27.4605 39.3719 26.8648C39.5154 25.9106 38.6544 25.0748 37.6996 24.9379C36.3728 24.7476 35.5218 25.8951 35.5218 26.982C35.5218 28.964 36.897 29.4927 37.2138 30.7155C37.5307 31.9382 29.5 36.0592 29.5 36.0592C29.5 36.0592 21.4693 31.9382 21.7862 30.7155C22.103 29.4927 23.4782 28.964 23.4782 26.982C23.4782 25.8951 22.6272 24.7476 21.3004 24.9379C20.3456 25.0748 19.4846 25.9106 19.6281 26.8648C19.7177 27.4605 20.0556 28.2142 20.645 28.0908C20.8945 28.0385 21.0888 27.9403 21.1938 27.7079C21.3501 27.3618 20.7164 27.2412 20.7872 26.8681C20.8573 26.4987 21.0588 26.2627 21.4346 26.2627C21.9326 26.2627 22.3981 26.8185 22.3981 27.2261C22.3981 27.6338 21.3628 29.2735 19.869 29.2735C18.3751 29.2735 13.7817 22.9319 14.0081 18.7656C14.2344 14.5993 17.2305 9.33258 18.8937 9.59748C21.4457 10.0039 19.8405 17.3413 20.2831 18.0659Z" stroke="black" stroke-width="0.2"></path><path d="M69.7125 12.2C70.0965 12.2 70.4565 12.264 70.7925 12.392C71.1445 12.504 71.4885 12.632 71.8245 12.776C72.1765 12.904 72.5205 13.032 72.8565 13.16C73.2085 13.272 73.5765 13.328 73.9605 13.328C74.1045 13.328 74.2245 13.288 74.3205 13.208C74.4325 13.128 74.5365 13.04 74.6325 12.944C74.7285 12.848 74.8245 12.76 74.9205 12.68C75.0165 12.584 75.1285 12.528 75.2565 12.512L75.7125 13.016C75.7125 13.352 75.5845 13.712 75.3285 14.096C75.0885 14.48 74.7845 14.832 74.4165 15.152C74.0645 15.472 73.6885 15.736 73.2885 15.944C72.8885 16.152 72.5205 16.256 72.1845 16.256C71.8005 16.256 71.4165 16.2 71.0325 16.088C70.6485 15.96 70.2645 15.832 69.8805 15.704C69.4965 15.56 69.1045 15.432 68.7045 15.32C68.3045 15.192 67.8965 15.128 67.4805 15.128C66.7285 15.128 66.0805 15.28 65.5365 15.584C65.0085 15.872 64.5605 16.256 64.1925 16.736C63.8405 17.216 63.5765 17.768 63.4005 18.392C63.2405 19.016 63.1605 19.664 63.1605 20.336C63.1605 20.512 63.1845 20.704 63.2325 20.912C63.2805 21.104 63.4005 21.248 63.5925 21.344C63.7525 21.008 63.9205 20.68 64.0965 20.36C64.2725 20.04 64.4805 19.76 64.7205 19.52C64.9605 19.264 65.2325 19.064 65.5365 18.92C65.8565 18.76 66.2325 18.68 66.6645 18.68C67.0645 18.68 67.4485 18.744 67.8165 18.872C68.1845 19 68.5605 19.064 68.9445 19.064C69.2325 19.064 69.4565 19.008 69.6165 18.896C69.7925 18.784 69.9365 18.664 70.0485 18.536C70.1605 18.392 70.2565 18.264 70.3365 18.152C70.4325 18.024 70.5445 17.96 70.6725 17.96L71.1285 18.488C71.1285 18.856 71.0405 19.24 70.8645 19.64C70.7045 20.04 70.4885 20.408 70.2165 20.744C69.9445 21.08 69.6245 21.36 69.2565 21.584C68.9045 21.792 68.5365 21.896 68.1525 21.896C67.7845 21.896 67.4325 21.824 67.0965 21.68C66.7605 21.52 66.4085 21.44 66.0405 21.44C65.8965 21.44 65.7205 21.472 65.5125 21.536C65.3205 21.6 65.1285 21.688 64.9365 21.8C64.7605 21.896 64.6085 22.024 64.4805 22.184C64.3525 22.328 64.2885 22.488 64.2885 22.664C64.4805 23.224 64.8245 23.72 65.3205 24.152C65.8325 24.568 66.4005 24.92 67.0245 25.208C67.6645 25.496 68.3205 25.72 68.9925 25.88C69.6805 26.024 70.2965 26.096 70.8405 26.096C71.4965 26.096 72.0725 25.976 72.5685 25.736C73.0805 25.496 73.5125 25.232 73.8645 24.944C74.2325 24.656 74.5125 24.392 74.7045 24.152C74.9125 23.912 75.0485 23.792 75.1125 23.792C75.2405 23.792 75.3445 23.888 75.4245 24.08C75.5045 24.256 75.5445 24.392 75.5445 24.488C75.5445 25.144 75.3125 25.768 74.8485 26.36C74.3845 26.936 73.8165 27.456 73.1445 27.92C72.4725 28.368 71.7605 28.728 71.0085 29C70.2565 29.256 69.5925 29.384 69.0165 29.384C67.9445 29.384 66.9445 29.136 66.0165 28.64C65.1045 28.128 64.3125 27.464 63.6405 26.648C62.9685 25.832 62.4405 24.92 62.0565 23.912C61.6725 22.904 61.4805 21.896 61.4805 20.888C61.4805 19.864 61.7125 18.84 62.1765 17.816C62.6405 16.776 63.2565 15.84 64.0245 15.008C64.7925 14.176 65.6645 13.504 66.6405 12.992C67.6325 12.464 68.6565 12.2 69.7125 12.2ZM78.6902 18.248C78.8342 18.248 79.0022 18.32 79.1942 18.464C79.3862 18.592 79.5702 18.744 79.7462 18.92C79.9382 19.096 80.1142 19.272 80.2742 19.448C80.4342 19.624 80.5622 19.768 80.6582 19.88C80.7382 19.88 80.8422 19.8 80.9702 19.64C81.0982 19.464 81.2502 19.28 81.4262 19.088C81.6022 18.88 81.8102 18.696 82.0502 18.536C82.3062 18.36 82.5942 18.272 82.9142 18.272C83.0102 18.272 83.1702 18.296 83.3942 18.344C83.6342 18.376 83.8742 18.424 84.1142 18.488C84.3542 18.552 84.5702 18.632 84.7622 18.728C84.9542 18.824 85.0502 18.92 85.0502 19.016C84.7942 19.528 84.4342 20.048 83.9702 20.576C83.5222 21.088 83.1142 21.576 82.7462 22.04L82.4102 21.944C82.4102 21.8 82.4262 21.656 82.4582 21.512C82.5062 21.352 82.5302 21.2 82.5302 21.056C82.5302 20.848 82.4582 20.688 82.3142 20.576C82.1862 20.448 82.0182 20.384 81.8102 20.384C81.4582 20.384 81.1862 20.584 80.9942 20.984C80.8182 21.368 80.6902 21.816 80.6102 22.328C80.5302 22.84 80.4822 23.344 80.4662 23.84C80.4662 24.336 80.4662 24.696 80.4662 24.92L80.4902 27.416C80.4902 27.544 80.5222 27.664 80.5862 27.776C80.6662 27.872 80.7462 27.968 80.8262 28.064C80.9222 28.144 81.0022 28.24 81.0662 28.352C81.1462 28.448 81.1862 28.56 81.1862 28.688L80.8742 29.048C80.6022 29.048 80.3382 28.992 80.0822 28.88C79.8422 28.752 79.5782 28.688 79.2902 28.688C79.0022 28.688 78.7302 28.752 78.4742 28.88C78.2182 28.992 77.9462 29.048 77.6582 29.048L77.2742 28.736C77.5782 28.384 77.7942 27.944 77.9222 27.416C78.0502 26.888 78.1302 26.336 78.1622 25.76C78.1942 25.184 78.1942 24.608 78.1622 24.032C78.1462 23.456 78.1382 22.936 78.1382 22.472C78.1382 22.152 78.1142 21.808 78.0662 21.44C78.0182 21.072 77.8502 20.784 77.5622 20.576C77.4982 20.528 77.3942 20.496 77.2502 20.48C77.1222 20.448 76.9862 20.416 76.8422 20.384C76.7142 20.352 76.5942 20.312 76.4822 20.264C76.3862 20.216 76.3382 20.136 76.3382 20.024L76.4342 19.832C76.7702 19.528 77.1382 19.256 77.5382 19.016C77.9382 18.76 78.3222 18.504 78.6902 18.248ZM91.744 17.768C92.016 17.768 92.264 17.84 92.488 17.984C92.712 18.112 92.928 18.264 93.136 18.44C93.36 18.6 93.584 18.752 93.808 18.896C94.032 19.024 94.28 19.088 94.552 19.088C94.712 19.088 94.856 19.048 94.984 18.968C95.112 18.888 95.232 18.8 95.344 18.704C95.472 18.592 95.592 18.496 95.704 18.416C95.816 18.32 95.936 18.272 96.064 18.272L96.352 18.632C96.336 18.776 96.24 18.944 96.064 19.136C95.904 19.328 95.728 19.608 95.536 19.976C95.344 20.328 95.168 20.8 95.008 21.392C94.848 21.984 94.768 22.76 94.768 23.72C94.768 23.912 94.768 24.152 94.768 24.44C94.768 24.712 94.784 24.992 94.816 25.28C94.864 25.568 94.928 25.84 95.008 26.096C95.088 26.336 95.216 26.52 95.392 26.648C95.456 26.696 95.56 26.736 95.704 26.768C95.848 26.8 95.984 26.84 96.112 26.888C96.24 26.92 96.352 26.968 96.448 27.032C96.56 27.08 96.616 27.16 96.616 27.272L94.048 28.952C93.888 28.952 93.72 28.888 93.544 28.76C93.384 28.632 93.224 28.48 93.064 28.304C92.904 28.112 92.752 27.928 92.608 27.752C92.48 27.56 92.376 27.4 92.296 27.272C92.12 27.288 91.896 27.392 91.624 27.584C91.352 27.76 91.072 27.96 90.784 28.184C90.496 28.392 90.224 28.584 89.968 28.76C89.712 28.936 89.504 29.024 89.344 29.024C88.8 29.024 88.288 28.872 87.808 28.568C87.328 28.264 86.912 27.88 86.56 27.416C86.208 26.952 85.928 26.448 85.72 25.904C85.528 25.344 85.432 24.816 85.432 24.32C85.432 23.6 85.624 22.856 86.008 22.088C86.392 21.304 86.888 20.6 87.496 19.976C88.104 19.336 88.776 18.808 89.512 18.392C90.264 17.976 91.008 17.768 91.744 17.768ZM87.736 22.328C87.736 22.792 87.792 23.28 87.904 23.792C88.016 24.288 88.2 24.752 88.456 25.184C88.712 25.6 89.032 25.944 89.416 26.216C89.8 26.488 90.272 26.624 90.832 26.624C91.28 26.624 91.608 26.568 91.816 26.456C92.04 26.344 92.184 26.192 92.248 26C92.328 25.792 92.36 25.552 92.344 25.28C92.328 24.992 92.32 24.68 92.32 24.344C92.32 23.848 92.36 23.448 92.44 23.144C92.52 22.84 92.616 22.584 92.728 22.376C92.84 22.168 92.944 21.976 93.04 21.8C93.136 21.624 93.2 21.416 93.232 21.176C92.704 21.128 92.272 21.016 91.936 20.84C91.6 20.664 91.312 20.48 91.072 20.288C90.832 20.096 90.608 19.928 90.4 19.784C90.208 19.624 89.976 19.544 89.704 19.544C89.384 19.544 89.104 19.64 88.864 19.832C88.624 20.024 88.416 20.264 88.24 20.552C88.08 20.824 87.952 21.12 87.856 21.44C87.776 21.76 87.736 22.056 87.736 22.328ZM99.4302 17.792L99.6222 17.84C99.9102 18.048 100.134 18.24 100.294 18.416C100.47 18.576 100.614 18.752 100.726 18.944C100.854 19.12 100.966 19.312 101.062 19.52C101.174 19.728 101.318 19.968 101.494 20.24C101.622 20.16 101.878 20 102.262 19.76C102.662 19.504 103.078 19.24 103.51 18.968C103.942 18.696 104.342 18.456 104.71 18.248C105.078 18.04 105.294 17.936 105.358 17.936C105.454 17.936 105.582 17.992 105.742 18.104C105.902 18.2 106.062 18.32 106.222 18.464C106.382 18.608 106.534 18.752 106.678 18.896C106.822 19.04 106.926 19.152 106.99 19.232C107.342 19.648 107.582 20.088 107.71 20.552C107.854 21.016 107.934 21.504 107.95 22.016C107.966 22.512 107.95 23.016 107.902 23.528C107.854 24.04 107.83 24.544 107.83 25.04C107.83 25.28 107.83 25.528 107.83 25.784C107.846 26.04 107.886 26.28 107.95 26.504C107.998 26.696 108.086 26.84 108.214 26.936C108.358 27.032 108.494 27.112 108.622 27.176C108.766 27.224 108.886 27.28 108.982 27.344C109.094 27.392 109.15 27.488 109.15 27.632L109.078 27.848L107.158 29C106.47 28.808 105.99 28.464 105.718 27.968C105.446 27.472 105.278 26.92 105.214 26.312C105.166 25.688 105.174 25.048 105.238 24.392C105.318 23.72 105.358 23.12 105.358 22.592C105.358 22.416 105.31 22.184 105.214 21.896C105.134 21.608 105.022 21.328 104.878 21.056C104.734 20.784 104.566 20.552 104.374 20.36C104.182 20.168 103.982 20.072 103.774 20.072L101.662 21.32C101.63 21.336 101.598 21.456 101.566 21.68C101.55 21.904 101.534 22.184 101.518 22.52C101.502 22.84 101.486 23.2 101.47 23.6C101.454 23.984 101.438 24.352 101.422 24.704C101.422 25.056 101.414 25.368 101.398 25.64C101.398 25.912 101.398 26.096 101.398 26.192C101.398 26.64 101.438 27.04 101.518 27.392C101.598 27.744 101.694 28.128 101.806 28.544L101.446 28.928C101.174 28.928 100.918 28.872 100.678 28.76C100.438 28.632 100.182 28.568 99.9102 28.568C99.6702 28.568 99.4302 28.616 99.1902 28.712C98.9662 28.792 98.7342 28.832 98.4942 28.832L98.2062 28.496C98.3982 28.208 98.5422 27.896 98.6382 27.56C98.7342 27.208 98.7982 26.856 98.8302 26.504C98.8622 26.136 98.8782 25.768 98.8782 25.4C98.8782 25.032 98.8782 24.68 98.8782 24.344V21.944C98.8782 21.64 98.8622 21.336 98.8302 21.032C98.7982 20.728 98.6782 20.456 98.4702 20.216C98.3902 20.12 98.2782 20.048 98.1342 20C98.0062 19.952 97.8702 19.904 97.7262 19.856C97.5822 19.808 97.4542 19.752 97.3422 19.688C97.2462 19.624 97.1982 19.536 97.1982 19.424L99.4302 17.792ZM113.266 13.544V18.464H114.25C114.618 18.464 114.994 18.416 115.378 18.32C115.778 18.208 116.114 18.016 116.386 17.744L116.77 18.176C116.77 18.608 116.65 18.992 116.41 19.328C116.186 19.664 115.898 19.952 115.546 20.192C115.194 20.416 114.81 20.6 114.394 20.744C113.994 20.872 113.618 20.944 113.266 20.96V23.672C113.266 24.216 113.29 24.696 113.338 25.112C113.402 25.528 113.53 25.872 113.722 26.144C113.914 26.4 114.194 26.584 114.562 26.696C114.93 26.808 115.426 26.832 116.05 26.768L116.338 27.152V27.224C116.274 27.304 116.106 27.432 115.834 27.608C115.562 27.784 115.258 27.968 114.922 28.16C114.602 28.352 114.282 28.536 113.962 28.712C113.658 28.872 113.442 28.984 113.314 29.048H113.218C113.122 29.048 112.978 28.992 112.786 28.88C112.594 28.768 112.394 28.632 112.186 28.472C111.978 28.312 111.786 28.16 111.61 28.016C111.434 27.856 111.306 27.736 111.226 27.656C111.05 27.496 110.914 27.256 110.818 26.936C110.722 26.6 110.658 26.224 110.626 25.808C110.594 25.392 110.578 24.952 110.578 24.488C110.578 24.008 110.586 23.552 110.602 23.12C110.634 22.672 110.658 22.256 110.674 21.872C110.706 21.488 110.722 21.176 110.722 20.936L109.81 20.96C109.778 20.88 109.746 20.8 109.714 20.72C109.682 20.624 109.666 20.536 109.666 20.456C109.666 20.216 109.722 20.016 109.834 19.856C109.962 19.68 110.09 19.488 110.218 19.28C110.362 19.056 110.49 18.792 110.602 18.488C110.73 18.184 110.794 17.768 110.794 17.24C110.794 16.824 110.81 16.416 110.842 16.016C110.874 15.6 110.914 15.184 110.962 14.768C111.074 14.656 111.226 14.544 111.418 14.432C111.61 14.32 111.802 14.216 111.994 14.12C112.202 14.024 112.41 13.936 112.618 13.856C112.826 13.76 113.002 13.672 113.146 13.592L113.266 13.544Z" fill="black"></path></svg>