<svg xmlns="http://www.w3.org/2000/svg" width="633" height="149" viewBox="0 0 633 149" fill="none">
<path opacity="0.955645" d="M145.926 136.266L145.878 120.25Z" fill="black"/>
<path opacity="0.955645" d="M163.837 17.5823L98.9781 46.3294Z" fill="black"/>
<path opacity="0.955645" d="M108.699 80.3514L139.076 96.1474Z" fill="black"/>
<path opacity="0.955645" d="M145.784 136.224V120.124L117.039 101.746L117.049 46.7509L163.832 17.5906L210.63 46.4422L210.637 102.337L181.762 119.967L181.763 136.418L225.498 109.924L225.789 38.7078L163.884 0.885132L102.476 38.8514L102.472 109.919L145.784 136.224Z" fill="white"/>
<path opacity="0.955645" d="M163.834 148.789L172.339 143.275L172.362 107.508L181.755 101.739L163.703 90.1735L145.61 101.863L155.33 107.434L155.308 143.35L163.834 148.789Z" fill="#E6E1A0"/>
<path opacity="0.955645" d="M133.756 89.2941L163.837 70.1504L194.201 89.2807L193.925 57.061L163.837 38.5406L133.758 57.3884L133.756 89.2941Z" fill="white"/>
<path d="M248.421 97.7859H256.955V69.0926H271.568C285.221 69.0926 294.395 61.4126 294.395 47.3326C294.395 33.8926 286.608 26.2125 270.501 26.2125H248.421V97.7859ZM256.955 62.0526V33.3592H269.648C281.275 33.3592 285.328 37.7326 285.328 47.8659C285.328 57.4659 280.955 62.0526 269.861 62.0526H256.955ZM307.38 97.7859H315.806V67.0659H329.46L347.273 97.7859H356.873L337.886 65.5726V65.0392C346.74 62.2659 351.86 56.5059 351.86 46.2659C351.86 33.3592 343.966 26.2125 328.18 26.2125H307.38V97.7859ZM315.806 60.4526V33.3592H327.54C338.526 33.3592 342.9 37.5192 342.9 46.3726C342.9 55.6526 338.846 60.4526 327.646 60.4526H315.806ZM369.473 97.7859H377.9V26.2125H369.473V97.7859ZM396.651 97.7859H404.544V37.7326H404.864L440.384 97.7859H449.131V26.2125H441.451V83.4926H441.131L406.677 26.2125H396.651V97.7859ZM483.372 97.7859H491.692V33.3592H513.559V26.2125H461.506V33.3592H483.372V97.7859ZM521.02 100.453H530.3V90.9593H521.02V100.453ZM569.509 98.7459C576.869 98.7459 581.562 96.6126 584.976 94.5859V87.9726C582.309 89.4659 577.616 91.7059 570.469 91.7059C559.162 91.7059 553.509 85.6259 553.509 72.0792V69.5192C553.509 57.3592 559.802 50.8526 569.402 50.8526C576.336 50.8526 579.749 52.1326 584.442 54.2659V47.4392C580.922 45.1992 576.762 43.9192 569.829 43.9192C556.176 43.9192 545.082 52.0259 545.082 70.7992V72.3992C545.082 89.7859 554.362 98.7459 569.509 98.7459ZM592.997 97.7859H632.037V91.0659H602.917V90.8526L632.143 50.7459V44.8792H594.597V51.4926H622.223V51.8126L592.997 91.5993V97.7859Z" fill="white"/>
<path d="M0.644562 97.7226H9.07124V26.1492H0.644562V97.7226ZM27.8221 97.7226H35.7154V37.6692H36.0354L71.5554 97.7226H80.3021V26.1492H72.6221V83.4292H72.3021L37.8488 26.1492H27.8221V97.7226Z" fill="white"/>
</svg>
