<svg width="159" height="19" viewBox="0 0 159 19" fill="none" xmlns="http://www.w3.org/2000/svg">
<path d="M10.0898 13.4648C10.0898 13.1992 10.0508 12.9609 9.97266 12.75C9.89453 12.5312 9.75 12.3281 9.53906 12.1406C9.32812 11.9531 9.02344 11.7656 8.625 11.5781C8.23438 11.3828 7.71875 11.1797 7.07812 10.9688C6.32812 10.7188 5.60547 10.4375 4.91016 10.125C4.21484 9.80469 3.59375 9.43359 3.04688 9.01172C2.5 8.58203 2.06641 8.08203 1.74609 7.51172C1.42578 6.93359 1.26562 6.26172 1.26562 5.49609C1.26562 4.76172 1.42969 4.10156 1.75781 3.51562C2.08594 2.92187 2.54297 2.41797 3.12891 2.00391C3.72266 1.58203 4.41797 1.26172 5.21484 1.04297C6.01172 0.816406 6.88281 0.703125 7.82812 0.703125C9.07812 0.703125 10.1797 0.921875 11.1328 1.35938C12.0938 1.78906 12.8438 2.40234 13.3828 3.19922C13.9297 3.98828 14.2031 4.92188 14.2031 6H10.1133C10.1133 5.57031 10.0234 5.19141 9.84375 4.86328C9.67188 4.53516 9.41016 4.27734 9.05859 4.08984C8.70703 3.90234 8.26562 3.80859 7.73438 3.80859C7.21875 3.80859 6.78516 3.88672 6.43359 4.04297C6.08203 4.19922 5.81641 4.41016 5.63672 4.67578C5.45703 4.93359 5.36719 5.21875 5.36719 5.53125C5.36719 5.78906 5.4375 6.02344 5.57812 6.23438C5.72656 6.4375 5.93359 6.62891 6.19922 6.80859C6.47266 6.98828 6.80078 7.16016 7.18359 7.32422C7.57422 7.48828 8.01172 7.64844 8.49609 7.80469C9.40234 8.09375 10.207 8.41797 10.9102 8.77734C11.6211 9.12891 12.2188 9.53125 12.7031 9.98438C13.1953 10.4297 13.5664 10.9375 13.8164 11.5078C14.0742 12.0781 14.2031 12.7227 14.2031 13.4414C14.2031 14.207 14.0547 14.8867 13.7578 15.4805C13.4609 16.0742 13.0352 16.5781 12.4805 16.9922C11.9258 17.3984 11.2617 17.707 10.4883 17.918C9.71484 18.1289 8.85156 18.2344 7.89844 18.2344C7.02344 18.2344 6.16016 18.125 5.30859 17.9062C4.46484 17.6797 3.69922 17.3359 3.01172 16.875C2.32422 16.4062 1.77344 15.8086 1.35938 15.082C0.953125 14.3477 0.75 13.4766 0.75 12.4688H4.875C4.875 12.9688 4.94141 13.3906 5.07422 13.7344C5.20703 14.0781 5.40234 14.3555 5.66016 14.5664C5.91797 14.7695 6.23438 14.918 6.60938 15.0117C6.98438 15.0977 7.41406 15.1406 7.89844 15.1406C8.42188 15.1406 8.84375 15.0664 9.16406 14.918C9.48438 14.7617 9.71875 14.5586 9.86719 14.3086C10.0156 14.0508 10.0898 13.7695 10.0898 13.4648ZM28.0664 14.8359V18H18.9727V14.8359H28.0664ZM20.4375 0.9375V18H16.3242V0.9375H20.4375ZM26.8945 7.71094V10.7695H18.9727V7.71094H26.8945ZM28.1016 0.9375V4.11328H18.9727V0.9375H28.1016ZM44.0039 0.9375V18H39.9023L33.8672 7.38281V18H29.7539V0.9375H33.8672L39.9023 11.5547V0.9375H44.0039ZM54.5156 0.9375V18H50.4023V0.9375H54.5156ZM59.6484 0.9375V4.11328H45.3867V0.9375H59.6484ZM65.7656 0.9375V18H61.6641V0.9375H65.7656ZM77.4492 13.4648C77.4492 13.1992 77.4102 12.9609 77.332 12.75C77.2539 12.5312 77.1094 12.3281 76.8984 12.1406C76.6875 11.9531 76.3828 11.7656 75.9844 11.5781C75.5938 11.3828 75.0781 11.1797 74.4375 10.9688C73.6875 10.7188 72.9648 10.4375 72.2695 10.125C71.5742 9.80469 70.9531 9.43359 70.4062 9.01172C69.8594 8.58203 69.4258 8.08203 69.1055 7.51172C68.7852 6.93359 68.625 6.26172 68.625 5.49609C68.625 4.76172 68.7891 4.10156 69.1172 3.51562C69.4453 2.92187 69.9023 2.41797 70.4883 2.00391C71.082 1.58203 71.7773 1.26172 72.5742 1.04297C73.3711 0.816406 74.2422 0.703125 75.1875 0.703125C76.4375 0.703125 77.5391 0.921875 78.4922 1.35938C79.4531 1.78906 80.2031 2.40234 80.7422 3.19922C81.2891 3.98828 81.5625 4.92188 81.5625 6H77.4727C77.4727 5.57031 77.3828 5.19141 77.2031 4.86328C77.0312 4.53516 76.7695 4.27734 76.418 4.08984C76.0664 3.90234 75.625 3.80859 75.0938 3.80859C74.5781 3.80859 74.1445 3.88672 73.793 4.04297C73.4414 4.19922 73.1758 4.41016 72.9961 4.67578C72.8164 4.93359 72.7266 5.21875 72.7266 5.53125C72.7266 5.78906 72.7969 6.02344 72.9375 6.23438C73.0859 6.4375 73.293 6.62891 73.5586 6.80859C73.832 6.98828 74.1602 7.16016 74.543 7.32422C74.9336 7.48828 75.3711 7.64844 75.8555 7.80469C76.7617 8.09375 77.5664 8.41797 78.2695 8.77734C78.9805 9.12891 79.5781 9.53125 80.0625 9.98438C80.5547 10.4297 80.9258 10.9375 81.1758 11.5078C81.4336 12.0781 81.5625 12.7227 81.5625 13.4414C81.5625 14.207 81.4141 14.8867 81.1172 15.4805C80.8203 16.0742 80.3945 16.5781 79.8398 16.9922C79.2852 17.3984 78.6211 17.707 77.8477 17.918C77.0742 18.1289 76.2109 18.2344 75.2578 18.2344C74.3828 18.2344 73.5195 18.125 72.668 17.9062C71.8242 17.6797 71.0586 17.3359 70.3711 16.875C69.6836 16.4062 69.1328 15.8086 68.7188 15.082C68.3125 14.3477 68.1094 13.4766 68.1094 12.4688H72.2344C72.2344 12.9688 72.3008 13.3906 72.4336 13.7344C72.5664 14.0781 72.7617 14.3555 73.0195 14.5664C73.2773 14.7695 73.5938 14.918 73.9688 15.0117C74.3438 15.0977 74.7734 15.1406 75.2578 15.1406C75.7812 15.1406 76.2031 15.0664 76.5234 14.918C76.8438 14.7617 77.0781 14.5586 77.2266 14.3086C77.375 14.0508 77.4492 13.7695 77.4492 13.4648ZM93.3867 12.2227H97.4883C97.4336 13.4102 97.1133 14.457 96.5273 15.3633C95.9414 16.2695 95.1289 16.9766 94.0898 17.4844C93.0586 17.9844 91.8398 18.2344 90.4336 18.2344C89.293 18.2344 88.2734 18.043 87.375 17.6602C86.4844 17.2773 85.7266 16.7266 85.1016 16.0078C84.4844 15.2891 84.0117 14.418 83.6836 13.3945C83.3633 12.3711 83.2031 11.2188 83.2031 9.9375V9.01172C83.2031 7.73047 83.3711 6.57812 83.707 5.55469C84.0508 4.52344 84.5352 3.64844 85.1602 2.92969C85.793 2.20312 86.5508 1.64844 87.4336 1.26562C88.3164 0.882812 89.2969 0.691406 90.375 0.691406C91.8594 0.691406 93.1133 0.957031 94.1367 1.48828C95.1602 2.01953 95.9531 2.75 96.5156 3.67969C97.0781 4.60156 97.4102 5.65234 97.5117 6.83203H93.4102C93.3945 6.19141 93.2852 5.65625 93.082 5.22656C92.8789 4.78906 92.5586 4.46094 92.1211 4.24219C91.6836 4.02344 91.1016 3.91406 90.375 3.91406C89.8672 3.91406 89.4258 4.00781 89.0508 4.19531C88.6758 4.38281 88.3633 4.67969 88.1133 5.08594C87.8633 5.49219 87.6758 6.01953 87.5508 6.66797C87.4336 7.30859 87.375 8.08203 87.375 8.98828V9.9375C87.375 10.8438 87.4297 11.6172 87.5391 12.2578C87.6484 12.8984 87.8242 13.4219 88.0664 13.8281C88.3086 14.2344 88.6211 14.5352 89.0039 14.7305C89.3945 14.918 89.8711 15.0117 90.4336 15.0117C91.0586 15.0117 91.5859 14.9141 92.0156 14.7188C92.4453 14.5156 92.7773 14.2109 93.0117 13.8047C93.2461 13.3906 93.3711 12.8633 93.3867 12.2227ZM99.4336 0.9375H106.148C107.461 0.9375 108.602 1.13281 109.57 1.52344C110.539 1.91406 111.285 2.49219 111.809 3.25781C112.34 4.02344 112.605 4.96875 112.605 6.09375C112.605 7.07031 112.453 7.88672 112.148 8.54297C111.844 9.19922 111.418 9.74219 110.871 10.1719C110.332 10.5938 109.703 10.9414 108.984 11.2148L107.637 11.9766H102L101.977 8.80078H106.148C106.672 8.80078 107.105 8.70703 107.449 8.51953C107.793 8.33203 108.051 8.06641 108.223 7.72266C108.402 7.37109 108.492 6.95312 108.492 6.46875C108.492 5.97656 108.402 5.55469 108.223 5.20312C108.043 4.85156 107.777 4.58203 107.426 4.39453C107.082 4.20703 106.656 4.11328 106.148 4.11328H103.547V18H99.4336V0.9375ZM108.773 18L105 10.4531L109.359 10.4297L113.18 17.8242V18H108.773ZM122.32 4.52344L118.16 18H113.742L120.012 0.9375H122.812L122.32 4.52344ZM125.766 18L121.594 4.52344L121.055 0.9375H123.891L130.195 18H125.766ZM125.602 11.6367V14.8125H116.848V11.6367H125.602ZM138.258 12.2109H134.016V9.03516H138.258C138.836 9.03516 139.305 8.9375 139.664 8.74219C140.023 8.54688 140.285 8.27734 140.449 7.93359C140.621 7.58203 140.707 7.1875 140.707 6.75C140.707 6.28125 140.621 5.84766 140.449 5.44922C140.285 5.05078 140.023 4.73047 139.664 4.48828C139.305 4.23828 138.836 4.11328 138.258 4.11328H135.562V18H131.449V0.9375H138.258C139.625 0.9375 140.801 1.1875 141.785 1.6875C142.777 2.1875 143.539 2.875 144.07 3.75C144.602 4.61719 144.867 5.60938 144.867 6.72656C144.867 7.82812 144.602 8.78906 144.07 9.60938C143.539 10.4297 142.777 11.0703 141.785 11.5312C140.801 11.9844 139.625 12.2109 138.258 12.2109ZM158.824 14.8359V18H149.73V14.8359H158.824ZM151.195 0.9375V18H147.082V0.9375H151.195ZM157.652 7.71094V10.7695H149.73V7.71094H157.652ZM158.859 0.9375V4.11328H149.73V0.9375H158.859Z" fill="#EA1C40"/>
</svg>